# xmcd
#
# Track frame offsets:
#	225
#	14173
#	28680
#	43120
#	57139
#	70959
#	84642
#	98601
#	109716
#	124508
#	138956
#	150723
#	163825
#	177761
#	190498
#	201766
#	216739
#	231290
#	244124
#	257014
#	271037
#	284536
#	299014
#	314165
#
# Disc length: 4400 seconds
#
# Revision: 0
# Processed by: cddbd v1.5.2PL0 Copyright (c) Steve Scherf et al.
# Submitted via: audiograbber 1.83.01
#
DISCID=74112d18
DTITLE=Ambrose And His Orchestra - The Decca Years - Serenade Vol.8
DYEAR=1900
DGENRE=
TTITLE0=Did You Ever See A Dream Walking? (Voc Sam Browne)
TTITLE1=Close Your Eyes (Voc Sam Browne)
TTITLE2=My Dance (Voc Sam Browne)
TTITLE3=Orchids To My Lady (Voc Sam Browne)
TTITLE4=Way Back Home (Voc Jack Cooper)
TTITLE5=The Danza (Voc Jack Cooper)
TTITLE6=Prtrait Of A Lady (Voc Jack Cooper)
TTITLE7=It's A Sin To Tell A Lie (Voc Jack Cooper)
TTITLE8=South Sea Island Magic (Voc Jack Cooper)
TTITLE9=Sixty Seconds Got Together (Voc Denny Dennis)
TTITLE10=Rhythm's OK In Harlem (Voc Evelyn Dall)
TTITLE11=Change Partners (Voc Denny Dennis)
TTITLE12=Don't Let That Moon Get Away (Voc Denny Dennis)
TTITLE13=I've Got A Pocketful Of Dreams (Voc Denny Dennis)
TTITLE14=Ain'tcha Comin' Out? (Voc Evelyn Dall)
TTITLE15=My Prayer (Voc Denny Dennis)
TTITLE16=I Paid Her For The Lie That I Told You (Voc Vera Lynn)
TTITLE17=Angels Never Leave Heaven (Voc Denny Dennis)
TTITLE18=Meet The Sun Halfway (Voc Jack Cooper)
TTITLE19=There's Rain In My Eyes (Voc Vera Lynn
TTITLE20=I Haven't Time To Be A Millionaire (Jack Cooper)
TTITLE21=Falling Leaves (Voc Sam Brown)
TTITLE22=A Little Steeple Pointing To A Star (Voc Anne Shelton
TTITLE23=Serenade (Schubert)
EXTD=
EXTT0=
EXTT1=
EXTT2=
EXTT3=
EXTT4=
EXTT5=
EXTT6=
EXTT7=
EXTT8=
EXTT9=
EXTT10=
EXTT11=
EXTT12=
EXTT13=
EXTT14=
EXTT15=
EXTT16=
EXTT17=
EXTT18=
EXTT19=
EXTT20=
EXTT21=
EXTT22=
EXTT23=
PLAYORDER=
